<?xml version="1.0" encoding="UTF-8" standalone="no"?>
<!-- Created with Inkscape (http://www.inkscape.org/) -->

<svg
   width="32"
   height="32"
   viewBox="0 0 32 32.000001"
   version="1.1"
   id="svg1"
   inkscape:version="1.4 (86a8ad7, 2024-10-11)"
   sodipodi:docname="gear.svg"
   inkscape:export-filename="..\Godot\projects\New folder\SuperMario127\assets\misc\settings.png"
   inkscape:export-xdpi="432"
   inkscape:export-ydpi="432"
   xmlns:inkscape="http://www.inkscape.org/namespaces/inkscape"
   xmlns:sodipodi="http://sodipodi.sourceforge.net/DTD/sodipodi-0.dtd"
   xmlns="http://www.w3.org/2000/svg"
   xmlns:svg="http://www.w3.org/2000/svg">
  <sodipodi:namedview
     id="namedview1"
     pagecolor="#505050"
     bordercolor="#ffffff"
     borderopacity="1"
     inkscape:showpageshadow="0"
     inkscape:pageopacity="0"
     inkscape:pagecheckerboard="1"
     inkscape:deskcolor="#505050"
     inkscape:document-units="px"
     inkscape:zoom="128"
     inkscape:cx="15.3125"
     inkscape:cy="2.6523438"
     inkscape:window-width="1920"
     inkscape:window-height="1057"
     inkscape:window-x="1912"
     inkscape:window-y="-8"
     inkscape:window-maximized="1"
     inkscape:current-layer="layer1" />
  <defs
     id="defs1">
    <inkscape:path-effect
       effect="fillet_chamfer"
       id="path-effect8"
       is_visible="true"
       lpeversion="1"
       nodesatellites_param="F,0,0,1,0,0,0,1 @ F,0,0,1,0,1,0,1 @ F,0,0,1,0,1,0,1 @ F,0,0,1,0,0,0,1 @ F,0,0,1,0,0,0,1 @ F,0,0,1,0,1,0,1 @ F,0,0,1,0,1,0,1 @ F,0,0,1,0,0,0,1 @ F,0,0,1,0,0,0,1 @ F,0,0,1,0,1,0,1 @ F,0,0,1,0,1,0,1 @ F,0,0,1,0,0,0,1 @ F,0,0,1,0,0,0,1 @ F,0,0,1,0,1,0,1 @ F,0,0,1,0,1,0,1 @ F,0,0,1,0,0,0,1 @ F,0,0,1,0,0,0,1 @ F,0,0,1,0,1,0,1 @ F,0,0,1,0,1,0,1 @ F,0,0,1,0,0,0,1 @ F,0,0,1,0,0,0,1 @ F,0,0,1,0,1,0,1 @ F,0,0,1,0,1,0,1 @ F,0,0,1,0,0,0,1 @ F,0,0,1,0,0,0,1 @ F,0,0,1,0,1,0,1 @ F,0,0,1,0,1,0,1 @ F,0,0,1,0,0,0,1 @ F,0,0,1,0,0,0,1 @ F,0,0,1,0,1,0,1 @ F,0,0,1,0,1,0,1 @ F,0,0,1,0,0,0,1 | F,0,0,1,0,1,0,1 @ F,0,0,1,0,1,0,1 @ F,0,0,1,0,1,0,1 @ F,0,0,1,0,1,0,1"
       radius="1"
       unit="px"
       method="bezier"
       mode="F"
       chamfer_steps="1"
       flexible="false"
       use_knot_distance="true"
       apply_no_radius="true"
       apply_with_radius="true"
       only_selected="false"
       hide_knots="false" />
    <inkscape:path-effect
       effect="offset"
       id="path-effect5"
       is_visible="true"
       lpeversion="1.3"
       linejoin_type="miter"
       unit="px"
       offset="0"
       miter_limit="4"
       attempt_force_join="false"
       update_on_knot_move="true" />
  </defs>
  <g
     inkscape:label="Layer 1"
     inkscape:groupmode="layer"
     id="layer1">
    <path
       id="path1"
       style="fill:#ffffff;fill-opacity:1;stroke-width:2.74342;stroke-linejoin:round"
       d="m 13.5,2 v 3.3359375 c 0,0.5522847 -0.435869,1.1080697 -0.953594,1.29971 C 12.301362,6.7263528 12.059967,6.8266278 11.822777,6.936241 11.321651,7.1678275 10.620818,7.083908 10.23017,6.693507 L 7.8417969,4.3066406 4.3066406,7.8417969 6.693507,10.23017 c 0.390401,0.390648 0.4743184,1.091484 0.2427304,1.592615 -0.109613,0.23719 -0.2098878,0.478585 -0.3005929,0.72363 C 6.4440063,13.064134 5.8882222,13.5 5.3359375,13.5 H 2 v 5 h 3.3359375 c 0.5522847,0 1.1080697,0.435869 1.29971,0.953594 0.090705,0.245044 0.1909803,0.486439 0.3005935,0.723629 0.2315865,0.501126 0.147667,1.201959 -0.242734,1.592607 l -2.3868664,2.388373 3.5351563,3.535156 2.3883731,-2.386866 c 0.390648,-0.390401 1.091484,-0.474319 1.592615,-0.242731 0.23719,0.109613 0.478585,0.209888 0.72363,0.300593 C 13.064134,25.555993 13.5,26.111777 13.5,26.664062 V 30 h 5 v -3.335938 c 0,-0.552285 0.435869,-1.10807 0.953594,-1.29971 0.245044,-0.0907 0.486439,-0.19098 0.723629,-0.300593 0.501126,-0.231587 1.201959,-0.147667 1.592607,0.242734 l 2.388373,2.386866 3.535156,-3.535156 -2.386866,-2.388373 c -0.390401,-0.390648 -0.474319,-1.091484 -0.242731,-1.592615 0.109613,-0.23719 0.209888,-0.478585 0.300593,-0.72363 C 25.555993,18.935866 26.111777,18.5 26.664062,18.5 H 30 v -5 h -3.318359 c -0.552285,0 -1.107503,-0.43601 -1.29847,-0.953982 -0.09203,-0.249625 -0.19399,-0.495479 -0.305629,-0.736972 -0.231649,-0.501096 -0.147779,-1.201901 0.242622,-1.592549 l 2.373195,-2.3747001 -3.535156,-3.5351563 -2.3747,2.3731955 C 21.392855,7.0702367 20.692047,7.1541051 20.190946,6.9224539 19.949452,6.8108151 19.703599,6.7088579 19.453974,6.6168261 18.936006,6.4258613 18.5,5.8706441 18.5,5.3183594 V 2 Z m 3.49346,9.098695 c 1.964355,0.396 3.511737,1.943333 3.907808,3.907663 0.109001,0.540596 0.108998,1.446602 3.7e-5,1.987102 -0.396,1.964355 -1.943333,3.511737 -3.907663,3.907808 -0.540596,0.109001 -1.446602,0.108998 -1.987102,3.7e-5 -1.964355,-0.396 -3.511737,-1.943333 -3.907808,-3.907663 -0.109001,-0.540596 -0.108998,-1.446602 -3.7e-5,-1.987102 0.396,-1.964355 1.943333,-3.511737 3.907663,-3.907808 0.540596,-0.109001 1.446602,-0.108998 1.987102,-3.7e-5 z"
       inkscape:path-effect="#path-effect8"
       inkscape:original-d="M 13.5,2 V 6.3359375 A 10,10 0 0 0 10.9375,7.4003906 L 7.8417969,4.3066406 4.3066406,7.8417969 7.4003906,10.9375 A 10,10 0 0 0 6.3359375,13.5 H 2 v 5 h 4.3359375 a 10,10 0 0 0 1.0644531,2.5625 l -3.09375,3.095703 3.5351563,3.535156 3.0957031,-3.09375 A 10,10 0 0 0 13.5,25.664062 V 30 h 5 v -4.335938 a 10,10 0 0 0 2.5625,-1.064453 l 3.095703,3.09375 3.535156,-3.535156 -3.09375,-3.095703 A 10,10 0 0 0 25.664062,18.5 H 30 v -5 h -4.318359 a 10,10 0 0 0 -1.06836,-2.576172 L 27.693359,7.8417969 24.158203,4.3066406 21.076172,7.3867188 A 10,10 0 0 0 18.5,6.3183594 V 2 Z m 2.5,9 a 5,5 0 0 1 5,5 5,5 0 0 1 -5,5 5,5 0 0 1 -5,-5 5,5 0 0 1 5,-5 z" />
  </g>
</svg>
