<?xml version="1.0" encoding="UTF-8" standalone="no"?>
<!-- Created with Inkscape (http://www.inkscape.org/) -->

<svg
   width="128"
   height="128"
   viewBox="0 0 33.866667 33.866667"
   version="1.1"
   id="svg1"
   xml:space="preserve"
   inkscape:version="1.3.2 (091e20ef0f, 2023-11-25, custom)"
   sodipodi:docname="LSS.svg"
   xmlns:inkscape="http://www.inkscape.org/namespaces/inkscape"
   xmlns:sodipodi="http://sodipodi.sourceforge.net/DTD/sodipodi-0.dtd"
   xmlns="http://www.w3.org/2000/svg"
   xmlns:svg="http://www.w3.org/2000/svg"><sodipodi:namedview
     id="namedview1"
     pagecolor="#505050"
     bordercolor="#eeeeee"
     borderopacity="1"
     inkscape:showpageshadow="0"
     inkscape:pageopacity="0"
     inkscape:pagecheckerboard="0"
     inkscape:deskcolor="#505050"
     inkscape:document-units="mm"
     inkscape:zoom="3.8735684"
     inkscape:cx="50.470259"
     inkscape:cy="47.50142"
     inkscape:window-width="1916"
     inkscape:window-height="1036"
     inkscape:window-x="0"
     inkscape:window-y="40"
     inkscape:window-maximized="1"
     inkscape:current-layer="g23"
     showguides="true" /><defs
     id="defs1" /><g
     inkscape:label="Layer 1"
     inkscape:groupmode="layer"
     id="layer1"><g
       id="g23"
       transform="matrix(0.20238378,0,0,0.20238378,-49.701299,-28.960218)"><rect
         style="display:inline;fill:#a02833;fill-opacity:1;stroke:none;stroke-width:0.455552;stroke-linejoin:round;stroke-opacity:1"
         id="rect22"
         width="116.71242"
         height="53.947121"
         x="276.00046"
         y="231.12535"
         rx="1.9231154" /><rect
         style="display:inline;fill:#db4657;fill-opacity:1;stroke:none;stroke-width:0.428069;stroke-linejoin:round"
         id="rect19"
         width="103.07684"
         height="53.93454"
         x="269.30664"
         y="231.13167"
         rx="1.3235043" /><path
         style="fill:#7a0f1a;fill-opacity:1;stroke:none;stroke-width:0.275008px;stroke-linecap:butt;stroke-linejoin:miter;stroke-opacity:1"
         d="m 278.84951,226.82315 17.19074,-45.36987 0.87984,-0.5876 104.49806,0.1312 0.87984,1.10969 -0.8121,3.59048 -99.9635,0.0651 -15.97254,42.69339 z"
         id="path17" /><path
         style="fill:#a02833;fill-opacity:1;stroke:none;stroke-width:0.275008px;stroke-linecap:butt;stroke-linejoin:miter;stroke-opacity:1"
         d="m 300.50719,185.69643 -15.73566,42.1059 101.89236,-0.45696 16.20938,-42.44856 -101.2832,0.0816 c -0.3908,3.2e-4 -0.82581,0.0187 -1.08288,0.7181 z"
         id="path16"
         sodipodi:nodetypes="scccsss" /><path
         style="fill:#b84151;fill-opacity:1;stroke:none;stroke-width:0.275008px;stroke-linecap:butt;stroke-linejoin:miter;stroke-opacity:1"
         d="m 278.51111,226.88841 17.25842,-45.43513 c 0.2676,-0.70416 0.88598,-0.91397 1.55664,-0.91397 h 104.09198 c 1.00942,0 1.4319,0.562 1.82736,1.10976 0,0 1.75969,2.43718 2.63953,3.65574 0.3912,0.54122 0.2828,1.12498 0.0677,1.69722 l -14.83888,39.462 1.91192,-0.032 c 1.0688,-0.016 1.20653,0.72566 1.21824,1.30566 l 0.0672,3.32922 c 0.0133,0.69926 -0.57843,1.30896 -1.62432,1.30566 l -20.50707,-0.0653 v -5.87525 h 12.99464 l 16.37856,-43.15035 c 0.3996,-1.05352 -0.0824,-2.08904 -1.35365,-2.08904 H 297.46119 c -0.81616,0 -1.01184,0.41272 -1.15048,0.78339 l -16.92003,45.23936 z"
         id="path15"
         sodipodi:nodetypes="csssssscsssscccsssscc" /><path
         style="fill:#fa7765;fill-opacity:1;stroke:none;stroke-width:0.275008px;stroke-linecap:butt;stroke-linejoin:miter;stroke-opacity:1"
         d="m 359.82871,227.73707 18.91662,-22.6849 9.4752,7.44192 -14.24662,17.20138 z"
         id="path12"
         sodipodi:nodetypes="ccccc" /><rect
         style="display:inline;fill:#b84151;fill-opacity:1;stroke:none;stroke-width:0.385949;stroke-linejoin:round"
         id="rect18"
         width="24.789944"
         height="5.9085116"
         x="368.30139"
         y="226.41808"
         rx="2.6067498" /><path
         style="fill:#ebe17b;fill-opacity:1;stroke:none;stroke-width:0.275008px;stroke-linecap:butt;stroke-linejoin:miter;stroke-opacity:1"
         d="m 302.98474,226.70163 c 0.4072,-0.40746 0.3012,-1.10858 -0.34,-1.67922 l -21.50401,-19.61976 c -2.0708,-2.2887 -0.292,-5.26878 2.50022,-5.3444 l 27.51915,0.69474 c 2.55352,0.0432 4.21648,-0.14906 5.31456,-2.61762 l 12.08317,-24.15534 c 1.64155,-3.3216 5.42336,-2.38915 6.14795,0.3472 l 7.84853,25.87216 c 0.49752,1.55848 1.11779,3.04592 3.82859,3.32352 l 27.89251,3.59488 c 3.65872,0.45576 3.968,4.22632 1.50818,5.86566 l -20.02072,13.43496 -26.60853,3.32352 z"
         id="path9"
         sodipodi:nodetypes="ccccccccccccccc" /><path
         style="fill:#000000;fill-opacity:1;stroke:none;stroke-width:0.275008px;stroke-linecap:butt;stroke-linejoin:miter;stroke-opacity:1"
         d="m 311.92583,213.58561 c 2.48792,-10.63032 13.63635,-7.78024 13.68704,1.10784 l -0.2584,-0.084 c -2.94872,-6.82824 -8.30253,-8.66296 -13.13696,-0.99742 z"
         id="path10"
         sodipodi:nodetypes="ccccc" /><path
         style="fill:#000000;fill-opacity:1;stroke:none;stroke-width:0.275008px;stroke-linecap:butt;stroke-linejoin:miter;stroke-opacity:1"
         d="m 331.65455,215.11961 c 2.48792,-10.63024 13.63635,-7.78016 13.68707,1.10792 l -0.2584,-0.0845 c -2.94867,-6.82813 -8.30251,-8.66288 -13.13696,-0.99733 z"
         id="path11"
         sodipodi:nodetypes="ccccc" /><path
         style="fill:#cbd6d9;fill-opacity:1;stroke:none;stroke-width:0.275008px;stroke-linecap:butt;stroke-linejoin:miter;stroke-opacity:1"
         d="m 282.73303,227.34131 -10.43291,-6.8317 c -0.58944,-0.3864 -1.16171,-0.396 -1.62715,-0.092 -12.33232,8.04304 -25.62637,-0.2932 -25.07704,-13.10958 0.0443,-1.0397 1.39795,-2.09224 2.58427,-1.29248 l 8.90141,6.0008 c 0.61195,0.41262 1.23984,0.44702 1.91427,0.18534 l 6.25525,-2.43299 c 0.8236,-0.3208 1.21683,-0.68768 1.21048,-1.44448 l -0.056,-6.64709 c -0.008,-0.78504 -0.3276,-1.29667 -0.90104,-1.66179 l -8.99717,-5.72384 c -1.3612,-0.866 -0.66704,-2.35672 0.192,-2.7696 11.15813,-5.36605 25.21003,2.78379 22.10995,17.07928 -0.12827,0.5932 -0.2904,1.34683 0.47858,1.8464 l 28.71422,18.6488 z"
         id="path13"
         sodipodi:nodetypes="csssssssssssssscc" /><path
         style="fill:#cbd6d9;fill-opacity:1;stroke:none;stroke-width:0.275008px;stroke-linecap:butt;stroke-linejoin:miter;stroke-opacity:1"
         d="m 361.67967,189.52907 10.2715,-12.39523 c 0.47834,-0.57728 1.48912,-0.47981 2.10368,-0.028 l 4.39226,3.24243 c 0.72534,0.53541 1.2111,1.22381 0.47856,2.40038 -1.17778,4.84922 4.14014,7.95056 8.23136,5.63152 1.19414,-0.67688 2.528,-1.35968 4.40286,0.0923 l 14.0536,10.88355 c 3.28592,2.5448 7.17776,10.45832 7.30024,17.14992 0.10987,5.98984 -1.77336,11.72509 -4.12528,14.98784 -2.00533,2.78192 -4.50728,0.45456 -4.04808,-1.77552 1.66888,-8.10467 -8.15488,-14.70323 -10.21336,-14.28824 -2.91104,0.58696 -5.488,-0.272 -7.4656,-1.84635 l -9.85862,-7.84733 c -1.74754,-1.39099 -1.38248,-3.07275 -1.05282,-4.70827 1.10392,-5.4772 -3.74358,-7.8496 -7.37006,-6.12024 -0.87938,0.8536 -1.72394,0.73771 -2.48752,0.16854 l -4.40384,-3.2807 c -0.87576,-0.65234 -0.74658,-1.61992 -0.2088,-2.2688 z"
         id="path14"
         sodipodi:nodetypes="sssscsssssssssscssss" /><rect
         style="fill:#e36f78;fill-opacity:1;stroke:none;stroke-width:0.364872;stroke-linejoin:round"
         id="rect17"
         width="106.16199"
         height="6.0988021"
         x="267.78207"
         y="226.26204"
         rx="1.4579289" /><path
         style="fill:#eeeeee;fill-opacity:1;stroke:none;stroke-width:0.275008px;stroke-linecap:butt;stroke-linejoin:miter;stroke-opacity:1"
         d="m 289.94911,243.77438 h -11.91176 v 29.75691 h 24.22952 v -8.45376 l -12.31776,-0.0187 z"
         id="path19"
         sodipodi:nodetypes="ccccccc" /><path
         style="fill:#f7f7f7;fill-opacity:1;stroke:none;stroke-width:0.275008px;stroke-linecap:butt;stroke-linejoin:miter;stroke-opacity:1"
         d="m 331.54714,243.77438 v 7.80112 h -14.93139 v 3.18504 h 11.82075 l 4.73784,3.89235 v 11.06357 l -4.8336,3.81483 H 306.3265 v -7.78464 h 15.1228 v -3.55432 h -11.7728 l -4.59432,-3.78515 v -10.84765 l 4.59432,-3.78515 z"
         id="path21" /><path
         style="fill:#f7f7f7;fill-opacity:1;stroke:none;stroke-width:0.275008px;stroke-linecap:butt;stroke-linejoin:miter;stroke-opacity:1"
         d="m 362.07997,243.77438 v 7.80112 h -14.93139 v 3.18504 h 11.82067 l 4.73784,3.89235 v 11.06357 l -4.8335,3.81483 H 336.8593 v -7.78464 h 15.12285 v -3.55432 h -11.77293 l -4.59424,-3.78515 v -10.84765 l 4.59424,-3.78515 z"
         id="path22" /></g></g></svg>
