<?xml version="1.0" encoding="UTF-8"?>
<svg id="Layer_2" data-name="Layer 2" xmlns="http://www.w3.org/2000/svg" viewBox="0 0 297.46 72.81">
  <g id="Layer_55" data-name="Layer 55">
    <g>
      <path d="M184.46,43.4h-71.46c3.26,16.76,18.02,29.4,35.73,29.4s32.47-12.65,35.73-29.4M148.73,0c-17.71,0-32.47,12.65-35.73,29.4h71.46c-3.26-16.76-18.02-29.4-35.73-29.4" style="fill: #fff;"/>
      <path d="M113,29.4h-42.5c.45,2.27.69,4.61.69,7,0,2.39-.24,4.73-.69,7h42.5c-.44-2.27-.67-4.61-.67-7s.23-4.73.67-7M226.96,29.4h-42.5c.44,2.27.67,4.61.67,7s-.23,4.73-.67,7h42.5c-.45-2.27-.69-4.62-.69-7,0-2.39.24-4.73.69-7" style="fill: #fff;"/>
      <path d="M184.46,29.4h-71.46c-.44,2.27-.67,4.61-.67,7s.23,4.73.67,7h71.46c.44-2.27.67-4.61.67-7s-.23-4.73-.67-7" style="fill: #fff;"/>
      <path d="M261.87,23.81c-2.65,0-5.01.78-7.04,2.14-2.02,1.36-3.63,3.31-4.58,5.55-.63,1.5-.98,3.13-.99,4.9,0,2.65.78,5.01,2.14,7.04,1.36,2.02,3.31,3.63,5.55,4.58,1.5.63,3.13.98,4.9.99,2.65,0,5.01-.78,7.04-2.14,2.02-1.36,3.63-3.31,4.58-5.55.63-1.5.98-3.13.99-4.9h11.5-11.5c0-2.65-.78-5.01-2.14-7.04-1.36-2.02-3.31-3.63-5.55-4.58-1.5-.63-3.13-.98-4.9-.99" style="fill: #fff;"/>
      <path d="M261.89.81h-.04c-4.88,0-9.59,1-13.85,2.8-6.4,2.71-11.82,7.21-15.65,12.88-2.59,3.82-4.46,8.21-5.4,12.91h11.84c3-9.89,12.19-17.1,23.06-17.1,13.31,0,24.1,10.79,24.1,24.1h11.5-11.5c0,13.31-10.79,24.1-24.1,24.1-10.87,0-20.07-7.2-23.06-17.1h-11.84c.48,2.38,1.19,4.68,2.11,6.86,2.71,6.4,7.21,11.82,12.88,15.65,5.66,3.83,12.56,6.09,19.89,6.09,0,0,.02,0,.02,0h.01c4.88,0,9.59-1,13.85-2.8,6.4-2.71,11.82-7.21,15.65-12.88,3.84-5.67,6.09-12.58,6.09-19.91h0c0-4.88-1-9.59-2.8-13.86-2.71-6.4-7.21-11.82-12.88-15.65-5.66-3.83-12.56-6.09-19.89-6.09" style="fill: #fff; opacity: 0;"/>
      <path d="M238.8,29.4h-11.84c-.45,2.27-.69,4.61-.69,7,0,2.38.24,4.73.69,7h11.84c-.67-2.22-1.03-4.57-1.03-7s.36-4.78,1.03-7" style="fill: #fff; opacity: 0;"/>
      <path d="M261.87,12.31c-10.87,0-20.07,7.2-23.06,17.1-.67,2.22-1.03,4.57-1.03,7s.36,4.78,1.03,7c3,9.89,12.19,17.1,23.06,17.1,13.31,0,24.1-10.79,24.1-24.1h-11.5c0,1.77-.35,3.4-.99,4.9-.95,2.25-2.56,4.19-4.58,5.55-2.02,1.36-4.39,2.14-7.04,2.14-1.77,0-3.4-.35-4.9-.99-2.25-.95-4.19-2.56-5.55-4.58-1.36-2.02-2.14-4.39-2.14-7.04,0-1.77.35-3.4.99-4.9.95-2.25,2.56-4.19,4.58-5.55,2.02-1.36,4.39-2.14,7.04-2.14,1.77,0,3.4.35,4.9.99,2.25.95,4.19,2.56,5.55,4.58,1.36,2.02,2.14,4.39,2.14,7.04h11.5c0-13.31-10.79-24.1-24.1-24.1" style="fill: #fff;"/>
      <path d="M35.6,23.81c-2.65,0-5.01.78-7.04,2.14-2.02,1.36-3.63,3.31-4.58,5.55-.63,1.5-.98,3.13-.99,4.9h-11.5,11.5c0,2.65.78,5.01,2.14,7.04,1.36,2.02,3.31,3.63,5.55,4.58,1.5.63,3.13.98,4.9.99,2.65,0,5.01-.78,7.04-2.14,2.02-1.36,3.63-3.31,4.58-5.55.63-1.5.98-3.13.99-4.9,0-2.65-.78-5.01-2.14-7.04-1.36-2.02-3.31-3.63-5.55-4.58-1.5-.63-3.13-.98-4.9-.99" style="fill: #fff;"/>
      <path d="M11.5,36.4H0c0,4.88,1,9.59,2.8,13.86,2.71,6.4,7.21,11.82,12.88,15.65,5.66,3.83,12.56,6.09,19.89,6.09,0,0,.02,0,.02,0h.01c4.88,0,9.59-1,13.85-2.8,6.4-2.71,11.82-7.21,15.65-12.88,2.59-3.82,4.46-8.21,5.4-12.91h-11.84c-3,9.89-12.19,17.1-23.06,17.1-13.31,0-24.1-10.79-24.1-24.1h0M35.62.81h-.04c-4.88,0-9.59,1-13.85,2.8-6.4,2.71-11.82,7.21-15.65,12.88C2.25,22.16,0,29.07,0,36.4h11.5c0-13.31,10.79-24.1,24.1-24.1,10.87,0,20.07,7.2,23.06,17.1h11.84c-.48-2.38-1.19-4.68-2.11-6.86-2.71-6.4-7.21-11.82-12.88-15.65-5.66-3.83-12.56-6.09-19.89-6.09" style="fill: #fff; opacity: 0;"/>
      <path d="M70.5,29.4h-11.84c.67,2.22,1.03,4.57,1.03,7s-.36,4.78-1.03,7h11.84c.45-2.27.69-4.61.69-7,0-2.38-.24-4.73-.69-7" style="fill: #fff; opacity: 0;"/>
      <path d="M35.6,12.31c-13.31,0-24.1,10.79-24.1,24.1h11.5c0-1.77.35-3.4.99-4.9.95-2.25,2.56-4.19,4.58-5.55,2.02-1.36,4.39-2.14,7.04-2.14,1.77,0,3.4.35,4.9.99,2.25.95,4.19,2.56,5.55,4.58,1.36,2.02,2.14,4.39,2.14,7.04,0,1.77-.35,3.4-.99,4.9-.95,2.25-2.56,4.19-4.58,5.55-2.02,1.36-4.39,2.14-7.04,2.14-1.77,0-3.4-.35-4.9-.99-2.25-.95-4.19-2.56-5.55-4.58-1.36-2.02-2.14-4.39-2.14-7.04h-11.5c0,13.31,10.79,24.1,24.1,24.1,10.87,0,20.07-7.2,23.06-17.1.67-2.22,1.03-4.57,1.03-7s-.36-4.78-1.03-7c-3-9.89-12.19-17.1-23.06-17.1" style="fill: #fff;"/>
    </g>
  </g>
</svg>